<svg width="32" height="32" viewBox="0 0 32 32" xmlns="http://www.w3.org/2000/svg"><title>icon_kodo</title><g fill="none" fill-rule="evenodd"><rect stroke="#44B2FF" stroke-width="2" x="5" y="1" width="22" height="21" rx="3"/><path d="M1 10.991C1 9.891 1.898 9 2.993 9H10c4.188 0 3 4 7 4H28.998c1.106 0 2.002.893 2.002 1.995v14.01A1.997 1.997 0 0 1 29.008 31H2.992A1.99 1.99 0 0 1 1 29.009V10.99z" stroke="#44B2FF" stroke-width="2" fill="#E3F5FF"/><path fill="#99DCFF" d="M2 27h28v3H2z"/><path fill="#44B2FF" d="M8 4h15v2H8zM19 8h4v2h-4z"/><path d="M1.5 27h28" stroke="#44B2FF" stroke-width="2" stroke-linecap="square"/></g></svg>