<svg width="57" height="25" viewBox="0 0 57 25" xmlns="http://www.w3.org/2000/svg"><title>Group + Fill-27</title><g fill="none" fill-rule="evenodd"><g fill="#656D7F"><path d="M32 24h1v1h-1zM34 20h1v5h-1zM40 20h1v5h-1zM52 20h1v5h-1zM56 20h1v5h-1zM48 21h1v4h-1zM38 21h1v3h-1zM35 20h3v1h-3zM41 20h4v1h-4zM46 20h5v1h-5z"/><path d="M52 20h5v1h-5zM41 22h4v1h-4zM53 22h3v1h-3zM41 24h4v1h-4zM35 22h3v1h-3zM35 24h3v1h-3z"/></g><path d="M37.094.191c-.064-.12-.2-.233-.447-.176-.479.113-6.067 9.48-18.075 9.22h-.004c-2.281.05-4.496-.249-6.32-.763l-1.045-3.384s-.193-.832-.993-1.258c-.553-.292-.876-.198-.944-.117-.06.077-.049.158-.049.158l.496 3.695C3.593 4.937.838.097.493.016.246-.043.111.07.046.19-.056.385.042.658.042.658c1.726 5.157 5.452 9.227 10.274 11.396l1.33 8.939c.09 2.548 1.79 4.007 4 4.007h6.61c2.21 0 3.864-1.595 4-4.007l1.212-7.391s.02-.103-.04-.146c-.075-.046-.651-.064-1.817.802-1.166.867-1.56 2.12-1.56 2.12s-1.26 3.072-1.59 4.386c-.35 1.382-1.895 1.259-1.895 1.259h-3.544c-1.181 0-1.302-1.064-1.302-1.064l-2.211-7.796c1.61.408 3.303.622 5.06.615h.003c8.683.034 15.905-5.296 18.526-13.12 0 0 .099-.273-.004-.467" fill="#238EFA"/></g></svg>